<mxfile host="app.diagrams.net" modified="2021-05-24T23:26:39.542Z" agent="5.0 (Windows NT 10.0; Win64; x64) AppleWebKit/537.36 (KHTML, like Gecko) Chrome/90.0.4430.212 Safari/537.36" etag="vg4X5J7xXSyThor0iUoj" version="14.7.0" type="github">
  <diagram id="R2lEEEUBdFMjLlhIrx00" name="Page-1">
    <mxGraphModel dx="868" dy="482" grid="1" gridSize="10" guides="1" tooltips="1" connect="1" arrows="1" fold="1" page="1" pageScale="1" pageWidth="850" pageHeight="1100" math="0" shadow="0" extFonts="Permanent Marker^https://fonts.googleapis.com/css?family=Permanent+Marker">
      <root>
        <mxCell id="0" />
        <mxCell id="1" parent="0" />
        <mxCell id="n1Sh8XkkBuxxroc1WlhV-4" value="Handles" style="rounded=1;arcSize=10;whiteSpace=wrap;html=1;align=center;" vertex="1" parent="1">
          <mxGeometry x="180" y="130" width="100" height="40" as="geometry" />
        </mxCell>
        <mxCell id="n1Sh8XkkBuxxroc1WlhV-5" value="&lt;span style=&quot;text-align: left&quot;&gt;HandlesId&lt;/span&gt;" style="ellipse;whiteSpace=wrap;html=1;align=center;fontStyle=4;" vertex="1" parent="1">
          <mxGeometry x="270" y="30" width="100" height="40" as="geometry" />
        </mxCell>
        <mxCell id="n1Sh8XkkBuxxroc1WlhV-16" value="" style="endArrow=none;html=1;exitX=0.75;exitY=0;exitDx=0;exitDy=0;" edge="1" parent="1" source="n1Sh8XkkBuxxroc1WlhV-4">
          <mxGeometry width="50" height="50" relative="1" as="geometry">
            <mxPoint x="260" y="120" as="sourcePoint" />
            <mxPoint x="310" y="70" as="targetPoint" />
          </mxGeometry>
        </mxCell>
        <mxCell id="n1Sh8XkkBuxxroc1WlhV-18" value="&lt;span style=&quot;text-align: left&quot;&gt;codeforcesHandle&lt;/span&gt;" style="ellipse;whiteSpace=wrap;html=1;align=center;" vertex="1" parent="1">
          <mxGeometry x="90" width="120" height="60" as="geometry" />
        </mxCell>
        <mxCell id="n1Sh8XkkBuxxroc1WlhV-19" value="" style="endArrow=none;html=1;" edge="1" parent="1">
          <mxGeometry width="50" height="50" relative="1" as="geometry">
            <mxPoint x="210" y="130" as="sourcePoint" />
            <mxPoint x="170" y="60" as="targetPoint" />
          </mxGeometry>
        </mxCell>
        <mxCell id="n1Sh8XkkBuxxroc1WlhV-20" value="&lt;span style=&quot;text-align: left&quot;&gt;atCoderHandle&lt;/span&gt;" style="ellipse;whiteSpace=wrap;html=1;align=center;" vertex="1" parent="1">
          <mxGeometry x="10" y="90" width="100" height="40" as="geometry" />
        </mxCell>
        <mxCell id="n1Sh8XkkBuxxroc1WlhV-21" value="" style="endArrow=none;html=1;entryX=1;entryY=1;entryDx=0;entryDy=0;" edge="1" parent="1" target="n1Sh8XkkBuxxroc1WlhV-20">
          <mxGeometry width="50" height="50" relative="1" as="geometry">
            <mxPoint x="180" y="150" as="sourcePoint" />
            <mxPoint x="100" y="130" as="targetPoint" />
          </mxGeometry>
        </mxCell>
        <mxCell id="n1Sh8XkkBuxxroc1WlhV-23" value="&lt;span style=&quot;font-weight: 700&quot;&gt;Blog&lt;/span&gt;" style="rounded=1;arcSize=10;whiteSpace=wrap;html=1;align=center;" vertex="1" parent="1">
          <mxGeometry x="530" y="130" width="100" height="40" as="geometry" />
        </mxCell>
        <mxCell id="n1Sh8XkkBuxxroc1WlhV-24" value="&lt;span style=&quot;text-align: left&quot;&gt;blogId&lt;/span&gt;" style="ellipse;whiteSpace=wrap;html=1;align=center;fontStyle=4;" vertex="1" parent="1">
          <mxGeometry x="410" y="10" width="100" height="40" as="geometry" />
        </mxCell>
        <mxCell id="n1Sh8XkkBuxxroc1WlhV-25" value="&lt;span style=&quot;text-align: left&quot;&gt;date&lt;/span&gt;" style="ellipse;whiteSpace=wrap;html=1;align=center;" vertex="1" parent="1">
          <mxGeometry x="530" y="10" width="100" height="40" as="geometry" />
        </mxCell>
        <mxCell id="n1Sh8XkkBuxxroc1WlhV-26" value="&lt;span style=&quot;text-align: left&quot;&gt;title&lt;/span&gt;" style="ellipse;whiteSpace=wrap;html=1;align=center;" vertex="1" parent="1">
          <mxGeometry x="640" y="10" width="100" height="40" as="geometry" />
        </mxCell>
        <mxCell id="n1Sh8XkkBuxxroc1WlhV-27" value="&lt;span style=&quot;text-align: left&quot;&gt;content&lt;/span&gt;" style="ellipse;whiteSpace=wrap;html=1;align=center;" vertex="1" parent="1">
          <mxGeometry x="760" y="30" width="100" height="40" as="geometry" />
        </mxCell>
        <mxCell id="n1Sh8XkkBuxxroc1WlhV-28" value="&lt;span style=&quot;text-align: left&quot;&gt;vote&amp;nbsp;&lt;/span&gt;" style="ellipse;whiteSpace=wrap;html=1;align=center;" vertex="1" parent="1">
          <mxGeometry x="740" y="110" width="100" height="40" as="geometry" />
        </mxCell>
        <mxCell id="n1Sh8XkkBuxxroc1WlhV-29" value="" style="endArrow=none;html=1;exitX=0.4;exitY=0;exitDx=0;exitDy=0;exitPerimeter=0;" edge="1" parent="1" source="n1Sh8XkkBuxxroc1WlhV-23">
          <mxGeometry width="50" height="50" relative="1" as="geometry">
            <mxPoint x="570" y="120" as="sourcePoint" />
            <mxPoint x="597" y="50" as="targetPoint" />
          </mxGeometry>
        </mxCell>
        <mxCell id="n1Sh8XkkBuxxroc1WlhV-30" value="" style="endArrow=none;html=1;exitX=0.75;exitY=0;exitDx=0;exitDy=0;" edge="1" parent="1" source="n1Sh8XkkBuxxroc1WlhV-23">
          <mxGeometry width="50" height="50" relative="1" as="geometry">
            <mxPoint x="640" y="100" as="sourcePoint" />
            <mxPoint x="690" y="50" as="targetPoint" />
          </mxGeometry>
        </mxCell>
        <mxCell id="n1Sh8XkkBuxxroc1WlhV-31" value="" style="endArrow=none;html=1;exitX=1;exitY=0;exitDx=0;exitDy=0;" edge="1" parent="1" source="n1Sh8XkkBuxxroc1WlhV-23">
          <mxGeometry width="50" height="50" relative="1" as="geometry">
            <mxPoint x="720" y="110" as="sourcePoint" />
            <mxPoint x="770" y="60" as="targetPoint" />
          </mxGeometry>
        </mxCell>
        <mxCell id="n1Sh8XkkBuxxroc1WlhV-32" value="" style="endArrow=none;html=1;exitX=0;exitY=0;exitDx=0;exitDy=0;" edge="1" parent="1" source="n1Sh8XkkBuxxroc1WlhV-23">
          <mxGeometry width="50" height="50" relative="1" as="geometry">
            <mxPoint x="435" y="100" as="sourcePoint" />
            <mxPoint x="485" y="50" as="targetPoint" />
          </mxGeometry>
        </mxCell>
        <mxCell id="n1Sh8XkkBuxxroc1WlhV-36" value="" style="endArrow=none;html=1;exitX=1;exitY=0.5;exitDx=0;exitDy=0;" edge="1" parent="1" source="n1Sh8XkkBuxxroc1WlhV-23">
          <mxGeometry width="50" height="50" relative="1" as="geometry">
            <mxPoint x="690" y="180" as="sourcePoint" />
            <mxPoint x="740" y="130" as="targetPoint" />
          </mxGeometry>
        </mxCell>
        <mxCell id="n1Sh8XkkBuxxroc1WlhV-37" value="&lt;span style=&quot;font-weight: 700&quot;&gt;User&lt;/span&gt;" style="rounded=1;arcSize=10;whiteSpace=wrap;html=1;align=center;" vertex="1" parent="1">
          <mxGeometry x="190" y="500" width="100" height="40" as="geometry" />
        </mxCell>
        <mxCell id="n1Sh8XkkBuxxroc1WlhV-38" value="&lt;span style=&quot;text-align: left&quot;&gt;userId&lt;/span&gt;" style="ellipse;whiteSpace=wrap;html=1;align=center;fontStyle=4;" vertex="1" parent="1">
          <mxGeometry x="290" y="380" width="100" height="40" as="geometry" />
        </mxCell>
        <mxCell id="n1Sh8XkkBuxxroc1WlhV-39" value="&lt;span style=&quot;text-align: left&quot;&gt;photoUrl&lt;/span&gt;" style="ellipse;whiteSpace=wrap;html=1;align=center;" vertex="1" parent="1">
          <mxGeometry x="180" y="360" width="100" height="40" as="geometry" />
        </mxCell>
        <mxCell id="n1Sh8XkkBuxxroc1WlhV-40" value="&lt;span style=&quot;text-align: left&quot;&gt;userName&lt;/span&gt;" style="ellipse;whiteSpace=wrap;html=1;align=center;" vertex="1" parent="1">
          <mxGeometry x="60" y="380" width="100" height="40" as="geometry" />
        </mxCell>
        <mxCell id="n1Sh8XkkBuxxroc1WlhV-41" value="&lt;span style=&quot;text-align: left&quot;&gt;password&lt;/span&gt;" style="ellipse;whiteSpace=wrap;html=1;align=center;" vertex="1" parent="1">
          <mxGeometry x="390" y="420" width="100" height="40" as="geometry" />
        </mxCell>
        <mxCell id="n1Sh8XkkBuxxroc1WlhV-42" value="&lt;span style=&quot;text-align: left&quot;&gt;gender&lt;/span&gt;" style="ellipse;whiteSpace=wrap;html=1;align=center;" vertex="1" parent="1">
          <mxGeometry x="20" y="530" width="100" height="40" as="geometry" />
        </mxCell>
        <mxCell id="n1Sh8XkkBuxxroc1WlhV-43" value="&lt;span style=&quot;text-align: left&quot;&gt;Name&lt;/span&gt;" style="ellipse;whiteSpace=wrap;html=1;align=center;" vertex="1" parent="1">
          <mxGeometry y="460" width="100" height="40" as="geometry" />
        </mxCell>
        <mxCell id="n1Sh8XkkBuxxroc1WlhV-44" value="&lt;span style=&quot;text-align: left&quot;&gt;email&lt;/span&gt;" style="ellipse;whiteSpace=wrap;html=1;align=center;" vertex="1" parent="1">
          <mxGeometry x="390" y="480" width="100" height="40" as="geometry" />
        </mxCell>
        <mxCell id="n1Sh8XkkBuxxroc1WlhV-45" value="&lt;span style=&quot;text-align: left&quot;&gt;country&lt;/span&gt;" style="ellipse;whiteSpace=wrap;html=1;align=center;" vertex="1" parent="1">
          <mxGeometry x="320" y="620" width="100" height="40" as="geometry" />
        </mxCell>
        <mxCell id="n1Sh8XkkBuxxroc1WlhV-46" value="&lt;span style=&quot;text-align: left&quot;&gt;birthdate&lt;/span&gt;" style="ellipse;whiteSpace=wrap;html=1;align=center;" vertex="1" parent="1">
          <mxGeometry x="40" y="600" width="100" height="40" as="geometry" />
        </mxCell>
        <mxCell id="n1Sh8XkkBuxxroc1WlhV-47" value="&lt;span style=&quot;text-align: left&quot;&gt;dateofJoin&lt;/span&gt;" style="ellipse;whiteSpace=wrap;html=1;align=center;" vertex="1" parent="1">
          <mxGeometry x="360" y="550" width="100" height="40" as="geometry" />
        </mxCell>
        <mxCell id="n1Sh8XkkBuxxroc1WlhV-48" value="&lt;span style=&quot;text-align: left&quot;&gt;SolvedCount&lt;/span&gt;" style="ellipse;whiteSpace=wrap;html=1;align=center;" vertex="1" parent="1">
          <mxGeometry x="180" y="630" width="100" height="40" as="geometry" />
        </mxCell>
        <mxCell id="n1Sh8XkkBuxxroc1WlhV-49" value="" style="endArrow=none;html=1;exitX=1;exitY=0.5;exitDx=0;exitDy=0;entryX=0;entryY=0.325;entryDx=0;entryDy=0;entryPerimeter=0;" edge="1" parent="1" source="n1Sh8XkkBuxxroc1WlhV-37" target="n1Sh8XkkBuxxroc1WlhV-44">
          <mxGeometry width="50" height="50" relative="1" as="geometry">
            <mxPoint x="370" y="460" as="sourcePoint" />
            <mxPoint x="420" y="410" as="targetPoint" />
          </mxGeometry>
        </mxCell>
        <mxCell id="n1Sh8XkkBuxxroc1WlhV-50" value="" style="endArrow=none;html=1;entryX=0;entryY=1;entryDx=0;entryDy=0;" edge="1" parent="1" target="n1Sh8XkkBuxxroc1WlhV-41">
          <mxGeometry width="50" height="50" relative="1" as="geometry">
            <mxPoint x="290" y="505" as="sourcePoint" />
            <mxPoint x="340" y="455" as="targetPoint" />
          </mxGeometry>
        </mxCell>
        <mxCell id="n1Sh8XkkBuxxroc1WlhV-51" value="" style="endArrow=none;html=1;entryX=0.36;entryY=0.975;entryDx=0;entryDy=0;entryPerimeter=0;" edge="1" parent="1" target="n1Sh8XkkBuxxroc1WlhV-38">
          <mxGeometry width="50" height="50" relative="1" as="geometry">
            <mxPoint x="250" y="500" as="sourcePoint" />
            <mxPoint x="300" y="450" as="targetPoint" />
          </mxGeometry>
        </mxCell>
        <mxCell id="n1Sh8XkkBuxxroc1WlhV-52" value="" style="endArrow=none;html=1;entryX=0.42;entryY=1;entryDx=0;entryDy=0;entryPerimeter=0;" edge="1" parent="1" target="n1Sh8XkkBuxxroc1WlhV-39">
          <mxGeometry width="50" height="50" relative="1" as="geometry">
            <mxPoint x="215" y="500" as="sourcePoint" />
            <mxPoint x="265" y="450" as="targetPoint" />
          </mxGeometry>
        </mxCell>
        <mxCell id="n1Sh8XkkBuxxroc1WlhV-53" value="" style="endArrow=none;html=1;" edge="1" parent="1" target="n1Sh8XkkBuxxroc1WlhV-47">
          <mxGeometry width="50" height="50" relative="1" as="geometry">
            <mxPoint x="290" y="530" as="sourcePoint" />
            <mxPoint x="340" y="480" as="targetPoint" />
          </mxGeometry>
        </mxCell>
        <mxCell id="n1Sh8XkkBuxxroc1WlhV-54" value="" style="endArrow=none;html=1;entryX=1;entryY=1;entryDx=0;entryDy=0;" edge="1" parent="1" source="n1Sh8XkkBuxxroc1WlhV-45" target="n1Sh8XkkBuxxroc1WlhV-37">
          <mxGeometry width="50" height="50" relative="1" as="geometry">
            <mxPoint x="240" y="580" as="sourcePoint" />
            <mxPoint x="290" y="530" as="targetPoint" />
          </mxGeometry>
        </mxCell>
        <mxCell id="n1Sh8XkkBuxxroc1WlhV-55" value="" style="endArrow=none;html=1;exitX=0.5;exitY=0;exitDx=0;exitDy=0;" edge="1" parent="1" source="n1Sh8XkkBuxxroc1WlhV-48">
          <mxGeometry width="50" height="50" relative="1" as="geometry">
            <mxPoint x="200" y="590" as="sourcePoint" />
            <mxPoint x="250" y="540" as="targetPoint" />
          </mxGeometry>
        </mxCell>
        <mxCell id="n1Sh8XkkBuxxroc1WlhV-57" value="" style="endArrow=none;html=1;entryX=0.69;entryY=0.95;entryDx=0;entryDy=0;entryPerimeter=0;" edge="1" parent="1" target="n1Sh8XkkBuxxroc1WlhV-40">
          <mxGeometry width="50" height="50" relative="1" as="geometry">
            <mxPoint x="190" y="505" as="sourcePoint" />
            <mxPoint x="240" y="455" as="targetPoint" />
          </mxGeometry>
        </mxCell>
        <mxCell id="n1Sh8XkkBuxxroc1WlhV-58" value="" style="endArrow=none;html=1;entryX=0;entryY=0.25;entryDx=0;entryDy=0;" edge="1" parent="1" target="n1Sh8XkkBuxxroc1WlhV-37">
          <mxGeometry width="50" height="50" relative="1" as="geometry">
            <mxPoint x="100" y="480" as="sourcePoint" />
            <mxPoint x="140" y="430" as="targetPoint" />
          </mxGeometry>
        </mxCell>
        <mxCell id="n1Sh8XkkBuxxroc1WlhV-59" value="" style="endArrow=none;html=1;exitX=1;exitY=0.5;exitDx=0;exitDy=0;" edge="1" parent="1" source="n1Sh8XkkBuxxroc1WlhV-42">
          <mxGeometry width="50" height="50" relative="1" as="geometry">
            <mxPoint x="140" y="570" as="sourcePoint" />
            <mxPoint x="190" y="520" as="targetPoint" />
          </mxGeometry>
        </mxCell>
        <mxCell id="n1Sh8XkkBuxxroc1WlhV-60" value="" style="endArrow=none;html=1;" edge="1" parent="1" source="n1Sh8XkkBuxxroc1WlhV-46">
          <mxGeometry width="50" height="50" relative="1" as="geometry">
            <mxPoint x="140" y="590" as="sourcePoint" />
            <mxPoint x="190" y="540" as="targetPoint" />
          </mxGeometry>
        </mxCell>
      </root>
    </mxGraphModel>
  </diagram>
</mxfile>
